<svg xmlns="http://www.w3.org/2000/svg" viewBox="0 0 712 350" width="100%" font-family="Inter, -apple-system, system-ui, sans-serif" role="img"><title>ReactEMG architecture</title><desc>Two synchronized streams (8-channel EMG and per-timestep intent labels) are span-masked, embedded with added position and modality encodings, concatenated into a 2W sequence, jointly encoded by a Transformer, then split into EMG reconstruction (MSE) and intent prediction (CE), losses on masked positions only.</desc><defs><marker id="arr" viewBox="0 0 10 10" refX="8.4" refY="5" markerWidth="6.5" markerHeight="6.5" orient="auto-start-reverse"><path d="M0 1.2 L 9 5 L 0 8.8 Z" fill="context-stroke"/></marker><marker id="arrP" viewBox="0 0 10 10" refX="8.4" refY="5" markerWidth="6.5" markerHeight="6.5" orient="auto-start-reverse"><path d="M0 1.2 L 9 5 L 0 8.8 Z" fill="#3C3489"/></marker><pattern id="mh" patternUnits="userSpaceOnUse" width="5" height="5" patternTransform="rotate(45)"><rect width="5" height="5" fill="#D9D7CE"/><line x1="0" y1="0" x2="0" y2="5" stroke="#8A8881" stroke-width="1"/></pattern></defs><text x="78" y="15" text-anchor="middle" font-size="10.5" font-weight="600" fill="#5F5E5A" letter-spacing="1.1">INPUT</text><text x="235" y="15" text-anchor="middle" font-size="10.5" font-weight="600" fill="#5F5E5A" letter-spacing="1.1">MASK + EMBED</text><text x="418" y="15" text-anchor="middle" font-size="10.5" font-weight="600" fill="#5F5E5A" letter-spacing="1.1">CONCAT + ENCODE</text><text x="619" y="15" text-anchor="middle" font-size="10.5" font-weight="600" fill="#5F5E5A" letter-spacing="1.1">SPLIT + PREDICT</text><line x1="160" y1="24" x2="160" y2="338" stroke="#BCBAAF" stroke-width="0.9" stroke-dasharray="4 3"/><line x1="315" y1="24" x2="315" y2="338" stroke="#BCBAAF" stroke-width="0.9" stroke-dasharray="4 3"/><line x1="525" y1="24" x2="525" y2="338" stroke="#BCBAAF" stroke-width="0.9" stroke-dasharray="4 3"/><text x="78" y="31" text-anchor="middle" font-size="9" fill="#5F5E5A" font-style="italic">masked spans</text><polyline points="12.0,42.60 13.7,42.95 15.4,43.18 17.1,42.96 18.7,43.03 20.4,42.66 22.1,42.94 23.8,42.91 25.5,43.21 27.2,43.04 28.8,43.00 30.5,42.83 32.2,42.81 33.9,43.00 35.6,43.30 37.3,42.56 38.9,41.56 40.6,44.96 42.3,44.44 44.0,43.37 45.7,43.48 47.4,46.32 49.0,39.24 50.7,46.48 52.4,39.63 54.1,45.00 55.8,41.25 57.5,42.54 59.1,42.95 60.8,43.05 62.5,43.00 64.2,42.79 65.9,43.21 67.6,42.95 69.2,43.07 70.9,42.56 72.6,43.02 74.3,43.28 76.0,43.26 77.7,42.93 79.3,42.89 81.0,43.13 82.7,43.03 84.4,42.86 86.1,42.78 87.8,42.83 89.4,42.89 91.1,42.96 92.8,42.73 94.5,42.59 96.2,42.92 97.9,43.18 99.5,43.24 101.2,42.84 102.9,43.00 104.6,43.03 106.3,43.00 108.0,42.80 109.6,42.83 111.3,43.04 113.0,42.76 114.7,42.74 116.4,42.97 118.1,43.08 119.7,43.48 121.4,42.96 123.1,43.28 124.8,43.04 126.5,42.91 128.2,42.79 129.8,42.94 131.5,42.45 133.2,42.81 134.9,42.88 136.6,43.06 138.3,43.16 139.9,43.06 141.6,43.09 143.3,43.10 145.0,43.41" fill="none" stroke="#0F6E56" stroke-width="0.85" stroke-linecap="round" stroke-linejoin="round"/><polyline points="12.0,56.82 13.7,56.96 15.4,57.31 17.1,57.06 18.7,57.04 20.4,57.16 22.1,56.75 23.8,57.19 25.5,57.24 27.2,56.98 28.8,57.69 30.5,56.97 32.2,57.00 33.9,57.09 35.6,57.23 37.3,57.36 38.9,56.60 40.6,56.71 42.3,57.32 44.0,56.94 45.7,56.92 47.4,56.98 49.0,57.39 50.7,57.06 52.4,56.82 54.1,56.67 55.8,56.70 57.5,56.87 59.1,56.70 60.8,56.64 62.5,57.20 64.2,57.17 65.9,56.85 67.6,57.39 69.2,57.12 70.9,56.88 72.6,57.14 74.3,57.08 76.0,56.85 77.7,57.35 79.3,56.69 81.0,57.20 82.7,56.92 84.4,57.25 86.1,57.12 87.8,57.35 89.4,57.48 91.1,53.10 92.8,57.25 94.5,56.65 96.2,54.63 97.9,58.95 99.5,60.14 101.2,56.82 102.9,54.50 104.6,56.20 106.3,57.21 108.0,57.15 109.6,56.79 111.3,56.99 113.0,56.85 114.7,56.85 116.4,57.09 118.1,56.70 119.7,56.93 121.4,56.80 123.1,56.65 124.8,56.96 126.5,57.26 128.2,56.93 129.8,56.86 131.5,57.30 133.2,57.15 134.9,57.14 136.6,57.27 138.3,57.06 139.9,56.99 141.6,57.22 143.3,57.07 145.0,56.70" fill="none" stroke="#0F6E56" stroke-width="0.85" stroke-linecap="round" stroke-linejoin="round"/><polyline points="12.0,71.33 13.7,71.08 15.4,71.15 17.1,71.19 18.7,70.82 20.4,70.66 22.1,70.75 23.8,71.07 25.5,71.23 27.2,71.03 28.8,70.70 30.5,71.31 32.2,70.65 33.9,70.89 35.6,70.87 37.3,71.06 38.9,71.24 40.6,70.67 42.3,70.93 44.0,71.07 45.7,70.74 47.4,70.98 49.0,71.04 50.7,70.71 52.4,70.71 54.1,70.99 55.8,70.95 57.5,71.05 59.1,71.49 60.8,71.20 62.5,71.10 64.2,70.84 65.9,71.20 67.6,70.83 69.2,71.35 70.9,71.26 72.6,70.56 74.3,70.74 76.0,70.96 77.7,70.91 79.3,70.72 81.0,70.73 82.7,71.16 84.4,70.88 86.1,70.66 87.8,70.94 89.4,71.21 91.1,71.37 92.8,71.01 94.5,70.93 96.2,70.82 97.9,70.89 99.5,71.12 101.2,71.28 102.9,71.27 104.6,70.95 106.3,71.19 108.0,71.17 109.6,71.10 111.3,70.46 113.0,70.99 114.7,70.94 116.4,71.29 118.1,70.94 119.7,71.10 121.4,71.06 123.1,71.28 124.8,71.17 126.5,71.23 128.2,71.33 129.8,71.21 131.5,71.17 133.2,70.94 134.9,71.02 136.6,71.48 138.3,71.01 139.9,71.11 141.6,70.98 143.3,70.94 145.0,70.34" fill="none" stroke="#0F6E56" stroke-width="0.85" stroke-linecap="round" stroke-linejoin="round"/><polyline points="12.0,85.28 13.7,84.94 15.4,84.74 17.1,85.04 18.7,85.07 20.4,84.35 22.1,84.86 23.8,85.08 25.5,84.94 27.2,85.06 28.8,84.57 30.5,84.46 32.2,85.10 33.9,85.36 35.6,85.12 37.3,85.49 38.9,84.80 40.6,84.92 42.3,85.13 44.0,85.02 45.7,85.12 47.4,84.92 49.0,84.79 50.7,84.81 52.4,84.67 54.1,85.12 55.8,85.23 57.5,85.23 59.1,85.14 60.8,85.06 62.5,84.94 64.2,84.87 65.9,85.17 67.6,85.19 69.2,84.99 70.9,84.98 72.6,84.87 74.3,84.74 76.0,85.29 77.7,85.00 79.3,85.28 81.0,85.00 82.7,84.83 84.4,84.86 86.1,84.75 87.8,85.30 89.4,85.09 91.1,85.23 92.8,84.93 94.5,85.00 96.2,85.11 97.9,84.92 99.5,85.06 101.2,84.76 102.9,85.19 104.6,85.01 106.3,84.79 108.0,84.88 109.6,85.05 111.3,84.97 113.0,85.21 114.7,84.61 116.4,84.08 118.1,85.60 119.7,86.71 121.4,82.99 123.1,87.14 124.8,83.50 126.5,86.40 128.2,82.60 129.8,87.05 131.5,83.40 133.2,83.31 134.9,84.75 136.6,84.89 138.3,84.77 139.9,85.09 141.6,85.07 143.3,84.99 145.0,85.34" fill="none" stroke="#0F6E56" stroke-width="0.85" stroke-linecap="round" stroke-linejoin="round"/><polyline points="12.0,98.96 13.7,98.91 15.4,99.15 17.1,99.26 18.7,98.77 20.4,99.43 22.1,99.10 23.8,98.57 25.5,98.64 27.2,99.21 28.8,98.62 30.5,98.83 32.2,98.88 33.9,99.25 35.6,98.79 37.3,98.68 38.9,96.82 40.6,97.72 42.3,100.87 44.0,100.50 45.7,98.17 47.4,99.76 49.0,100.67 50.7,98.72 52.4,99.09 54.1,99.02 55.8,99.16 57.5,99.03 59.1,99.00 60.8,99.13 62.5,98.61 64.2,99.05 65.9,98.91 67.6,98.70 69.2,99.24 70.9,98.89 72.6,99.09 74.3,99.02 76.0,99.16 77.7,99.15 79.3,98.70 81.0,98.59 82.7,99.14 84.4,99.21 86.1,98.85 87.8,98.80 89.4,98.98 91.1,99.14 92.8,99.17 94.5,98.58 96.2,99.04 97.9,99.17 99.5,98.77 101.2,99.02 102.9,98.96 104.6,98.93 106.3,98.76 108.0,99.31 109.6,98.93 111.3,98.97 113.0,99.09 114.7,98.66 116.4,99.24 118.1,99.24 119.7,98.85 121.4,99.60 123.1,98.79 124.8,100.70 126.5,96.24 128.2,96.53 129.8,100.68 131.5,99.40 133.2,99.24 134.9,99.28 136.6,98.94 138.3,99.09 139.9,99.47 141.6,98.78 143.3,99.01 145.0,98.53" fill="none" stroke="#0F6E56" stroke-width="0.85" stroke-linecap="round" stroke-linejoin="round"/><polyline points="12.0,113.16 13.7,113.20 15.4,112.42 17.1,112.98 18.7,113.15 20.4,112.64 22.1,112.95 23.8,112.88 25.5,113.20 27.2,112.88 28.8,112.91 30.5,112.95 32.2,112.85 33.9,113.40 35.6,113.07 37.3,113.07 38.9,112.91 40.6,113.18 42.3,112.75 44.0,113.01 45.7,113.01 47.4,113.01 49.0,112.88 50.7,113.15 52.4,112.73 54.1,112.93 55.8,112.95 57.5,112.77 59.1,112.76 60.8,113.21 62.5,113.27 64.2,112.82 65.9,113.18 67.6,113.03 69.2,113.55 70.9,112.87 72.6,112.95 74.3,113.15 76.0,113.11 77.7,113.00 79.3,113.56 81.0,113.27 82.7,113.19 84.4,112.93 86.1,113.48 87.8,113.08 89.4,112.32 91.1,114.35 92.8,114.19 94.5,114.23 96.2,109.08 97.9,112.30 99.5,115.95 101.2,109.32 102.9,111.73 104.6,114.01 106.3,112.94 108.0,112.01 109.6,113.86 111.3,112.97 113.0,113.19 114.7,113.11 116.4,112.95 118.1,112.87 119.7,112.79 121.4,113.10 123.1,113.27 124.8,113.32 126.5,113.14 128.2,112.88 129.8,113.09 131.5,113.14 133.2,112.97 134.9,112.85 136.6,112.97 138.3,112.52 139.9,113.28 141.6,113.18 143.3,112.90 145.0,112.71" fill="none" stroke="#0F6E56" stroke-width="0.85" stroke-linecap="round" stroke-linejoin="round"/><polyline points="12.0,127.02 13.7,126.74 15.4,127.27 17.1,127.00 18.7,127.11 20.4,126.95 22.1,126.88 23.8,127.00 25.5,127.09 27.2,127.01 28.8,126.98 30.5,127.14 32.2,126.75 33.9,126.89 35.6,127.11 37.3,127.30 38.9,126.77 40.6,127.28 42.3,126.90 44.0,127.08 45.7,127.22 47.4,127.50 49.0,126.78 50.7,126.79 52.4,126.78 54.1,126.85 55.8,127.19 57.5,127.30 59.1,126.82 60.8,126.59 62.5,126.96 64.2,127.01 65.9,126.82 67.6,127.20 69.2,126.84 70.9,126.90 72.6,126.84 74.3,127.17 76.0,127.09 77.7,126.93 79.3,127.35 81.0,127.38 82.7,126.97 84.4,126.99 86.1,127.05 87.8,127.21 89.4,126.59 91.1,126.96 92.8,126.93 94.5,126.89 96.2,126.85 97.9,126.69 99.5,126.83 101.2,126.83 102.9,126.42 104.6,126.69 106.3,126.77 108.0,127.07 109.6,127.25 111.3,126.86 113.0,126.84 114.7,127.52 116.4,126.82 118.1,126.99 119.7,127.02 121.4,127.11 123.1,126.85 124.8,126.95 126.5,127.11 128.2,126.91 129.8,127.03 131.5,126.69 133.2,127.13 134.9,126.84 136.6,126.90 138.3,127.36 139.9,126.95 141.6,126.59 143.3,127.05 145.0,127.27" fill="none" stroke="#0F6E56" stroke-width="0.85" stroke-linecap="round" stroke-linejoin="round"/><polyline points="12.0,141.28 13.7,141.30 15.4,141.16 17.1,140.85 18.7,140.98 20.4,141.14 22.1,141.13 23.8,141.07 25.5,141.13 27.2,141.41 28.8,141.05 30.5,141.13 32.2,141.44 33.9,140.79 35.6,141.16 37.3,141.12 38.9,141.22 40.6,140.98 42.3,141.18 44.0,138.67 45.7,140.63 47.4,139.59 49.0,143.90 50.7,138.37 52.4,143.97 54.1,143.11 55.8,141.83 57.5,141.05 59.1,141.17 60.8,141.14 62.5,141.15 64.2,140.95 65.9,140.71 67.6,141.12 69.2,140.77 70.9,141.31 72.6,141.12 74.3,141.27 76.0,140.95 77.7,140.98 79.3,141.10 81.0,140.62 82.7,141.09 84.4,140.89 86.1,140.88 87.8,140.98 89.4,141.60 91.1,139.07 92.8,143.58 94.5,142.11 96.2,140.82 97.9,140.54 99.5,140.96 101.2,139.36 102.9,139.36 104.6,140.44 106.3,140.45 108.0,140.79 109.6,140.81 111.3,140.89 113.0,141.49 114.7,141.09 116.4,140.92 118.1,141.17 119.7,140.91 121.4,140.55 123.1,141.06 124.8,141.05 126.5,141.15 128.2,141.70 129.8,140.90 131.5,140.99 133.2,140.85 134.9,140.79 136.6,141.06 138.3,141.05 139.9,140.60 141.6,141.42 143.3,140.39 145.0,141.30" fill="none" stroke="#0F6E56" stroke-width="0.85" stroke-linecap="round" stroke-linejoin="round"/><rect x="45.25" y="34" width="24.94" height="116" fill="url(#mh)" opacity="0.9"/><rect x="45.25" y="34" width="24.94" height="116" fill="none" stroke="#5F5E5A" stroke-width="0.5" stroke-dasharray="2 2"/><rect x="103.44" y="34" width="16.62" height="116" fill="url(#mh)" opacity="0.9"/><rect x="103.44" y="34" width="16.62" height="116" fill="none" stroke="#5F5E5A" stroke-width="0.5" stroke-dasharray="2 2"/><text x="78" y="166" text-anchor="middle" font-size="11" fill="#2C2C2A" font-weight="500">8-channel sEMG</text><text x="78" y="178" text-anchor="middle" font-size="9.5" fill="#888780">x ∈ ℝ^(W × 8)</text><rect x="12.00" y="232" width="7" height="32" rx="1.2" fill="#D9D7CE"/><rect x="20.31" y="232" width="7" height="32" rx="1.2" fill="#D9D7CE"/><rect x="28.62" y="232" width="7" height="32" rx="1.2" fill="#D9D7CE"/><rect x="36.94" y="232" width="7" height="32" rx="1.2" fill="#D9D7CE"/><rect x="45.25" y="232" width="7" height="32" rx="1.2" fill="url(#mh)"/><rect x="53.56" y="232" width="7" height="32" rx="1.2" fill="url(#mh)"/><rect x="61.88" y="232" width="7" height="32" rx="1.2" fill="url(#mh)"/><rect x="70.19" y="232" width="7" height="32" rx="1.2" fill="#5DCAA5"/><rect x="78.50" y="232" width="7" height="32" rx="1.2" fill="#5DCAA5"/><rect x="86.81" y="232" width="7" height="32" rx="1.2" fill="#5DCAA5"/><rect x="95.12" y="232" width="7" height="32" rx="1.2" fill="#5DCAA5"/><rect x="103.44" y="232" width="7" height="32" rx="1.2" fill="url(#mh)"/><rect x="111.75" y="232" width="7" height="32" rx="1.2" fill="url(#mh)"/><rect x="120.06" y="232" width="7" height="32" rx="1.2" fill="#F0997B"/><rect x="128.38" y="232" width="7" height="32" rx="1.2" fill="#F0997B"/><rect x="136.69" y="232" width="7" height="32" rx="1.2" fill="#F0997B"/><text x="78" y="280" text-anchor="middle" font-size="11" fill="#2C2C2A" font-weight="500">intent labels</text><text x="78" y="292" text-anchor="middle" font-size="9.5" fill="#888780">a ∈ {rest, open, close}^W</text><g transform="translate(12,306)" font-size="9" fill="#5F5E5A"><rect width="8" height="8" rx="1.5" fill="#D9D7CE"/><text x="11" y="7">rest</text><rect x="36" width="8" height="8" rx="1.5" fill="#5DCAA5"/><text x="47" y="7">open</text><rect x="74" width="8" height="8" rx="1.5" fill="#F0997B"/><text x="85" y="7">close</text><rect x="114" width="8" height="8" rx="1.5" fill="url(#mh)"/><text x="125" y="7">mask</text></g><path d="M 147.0 92.0 L 170.0 92.0" fill="none" stroke="#444441" stroke-width="1.5" marker-end="url(#arr)"/><path d="M 141.0 248.0 L 170.0 248.0" fill="none" stroke="#444441" stroke-width="1.5" marker-end="url(#arr)"/><rect x="172" y="58" width="126" height="68" rx="6" fill="#E1F5EE" stroke="#0F6E56" stroke-width="0.9"/><text x="235" y="74" text-anchor="middle" font-size="11" font-weight="600" fill="#085041">linear projection</text><text x="235" y="87" text-anchor="middle" font-size="9" fill="#0F6E56">1×1 conv: 8 → D</text><text x="182" y="107" font-size="12" fill="#5F5E5A">⊕</text><polyline points="195.0,103.50 196.0,104.48 197.0,105.28 198.0,105.78 199.0,105.89 200.0,105.58 201.0,104.91 202.0,104.00 203.0,103.00 204.0,102.09 205.0,101.42 206.0,101.11 207.0,101.22 208.0,101.72 209.0,102.52 210.0,103.50 211.0,104.48 212.0,105.28 213.0,105.78 214.0,105.89 215.0,105.58 216.0,104.91 217.0,104.00 218.0,103.00 219.0,102.09 220.0,101.42 221.0,101.11 222.0,101.22 223.0,101.72 224.0,102.52 225.0,103.50 226.0,104.48 227.0,105.28 228.0,105.78 229.0,105.89 230.0,105.58 231.0,104.91" fill="none" stroke="#5F5E5A" stroke-width="1.1" stroke-linecap="round" stroke-linejoin="round"/><text x="236" y="107" font-size="8.5" fill="#5F5E5A">position</text><text x="182" y="121" font-size="12" fill="#5F5E5A">⊕</text><rect x="195" y="115" width="36" height="6" rx="1.5" fill="#5DCAA5"/><text x="236" y="121" font-size="8.5" fill="#5F5E5A">modality</text><rect x="170.0" y="132" width="7" height="32" rx="1.2" fill="#5DCAA5"/><rect x="178.0" y="132" width="7" height="32" rx="1.2" fill="#5DCAA5"/><rect x="186.0" y="132" width="7" height="32" rx="1.2" fill="#5DCAA5"/><rect x="194.0" y="132" width="7" height="32" rx="1.2" fill="#5DCAA5"/><rect x="202.0" y="132" width="7" height="32" rx="1.2" fill="url(#mh)"/><rect x="210.0" y="132" width="7" height="32" rx="1.2" fill="url(#mh)"/><rect x="218.0" y="132" width="7" height="32" rx="1.2" fill="url(#mh)"/><rect x="226.0" y="132" width="7" height="32" rx="1.2" fill="#5DCAA5"/><rect x="234.0" y="132" width="7" height="32" rx="1.2" fill="#5DCAA5"/><rect x="242.0" y="132" width="7" height="32" rx="1.2" fill="#5DCAA5"/><rect x="250.0" y="132" width="7" height="32" rx="1.2" fill="#5DCAA5"/><rect x="258.0" y="132" width="7" height="32" rx="1.2" fill="url(#mh)"/><rect x="266.0" y="132" width="7" height="32" rx="1.2" fill="url(#mh)"/><rect x="274.0" y="132" width="7" height="32" rx="1.2" fill="#5DCAA5"/><rect x="282.0" y="132" width="7" height="32" rx="1.2" fill="#5DCAA5"/><rect x="290.0" y="132" width="7" height="32" rx="1.2" fill="#5DCAA5"/><text x="233" y="178" text-anchor="middle" font-size="9.5" fill="#888780">EMG tokens: W × D</text><rect x="172" y="214" width="126" height="68" rx="6" fill="#FAECE7" stroke="#993C1D" stroke-width="0.9"/><text x="235" y="230" text-anchor="middle" font-size="11" font-weight="600" fill="#712B13">token embedding</text><text x="235" y="243" text-anchor="middle" font-size="9" fill="#993C1D">vocab → D, with [M]</text><text x="182" y="263" font-size="12" fill="#5F5E5A">⊕</text><polyline points="195.0,259.50 196.0,260.48 197.0,261.28 198.0,261.78 199.0,261.89 200.0,261.58 201.0,260.91 202.0,260.00 203.0,259.00 204.0,258.09 205.0,257.42 206.0,257.11 207.0,257.22 208.0,257.72 209.0,258.52 210.0,259.50 211.0,260.48 212.0,261.28 213.0,261.78 214.0,261.89 215.0,261.58 216.0,260.91 217.0,260.00 218.0,259.00 219.0,258.09 220.0,257.42 221.0,257.11 222.0,257.22 223.0,257.72 224.0,258.52 225.0,259.50 226.0,260.48 227.0,261.28 228.0,261.78 229.0,261.89 230.0,261.58 231.0,260.91" fill="none" stroke="#5F5E5A" stroke-width="1.1" stroke-linecap="round" stroke-linejoin="round"/><text x="236" y="263" font-size="8.5" fill="#5F5E5A">position</text><text x="182" y="277" font-size="12" fill="#5F5E5A">⊕</text><rect x="195" y="271" width="36" height="6" rx="1.5" fill="#F0997B"/><text x="236" y="277" font-size="8.5" fill="#5F5E5A">modality</text><rect x="170.0" y="290" width="7" height="32" rx="1.2" fill="#D9D7CE"/><rect x="178.0" y="290" width="7" height="32" rx="1.2" fill="#D9D7CE"/><rect x="186.0" y="290" width="7" height="32" rx="1.2" fill="#D9D7CE"/><rect x="194.0" y="290" width="7" height="32" rx="1.2" fill="#D9D7CE"/><rect x="202.0" y="290" width="7" height="32" rx="1.2" fill="url(#mh)"/><rect x="210.0" y="290" width="7" height="32" rx="1.2" fill="url(#mh)"/><rect x="218.0" y="290" width="7" height="32" rx="1.2" fill="url(#mh)"/><rect x="226.0" y="290" width="7" height="32" rx="1.2" fill="#5DCAA5"/><rect x="234.0" y="290" width="7" height="32" rx="1.2" fill="#5DCAA5"/><rect x="242.0" y="290" width="7" height="32" rx="1.2" fill="#5DCAA5"/><rect x="250.0" y="290" width="7" height="32" rx="1.2" fill="#5DCAA5"/><rect x="258.0" y="290" width="7" height="32" rx="1.2" fill="url(#mh)"/><rect x="266.0" y="290" width="7" height="32" rx="1.2" fill="url(#mh)"/><rect x="274.0" y="290" width="7" height="32" rx="1.2" fill="#F0997B"/><rect x="282.0" y="290" width="7" height="32" rx="1.2" fill="#F0997B"/><rect x="290.0" y="290" width="7" height="32" rx="1.2" fill="#F0997B"/><text x="233" y="336" text-anchor="middle" font-size="9.5" fill="#888780">intent tokens: W × D</text><path d="M 297.0 148.0 L 304.0 148.0 Q 309.0 148.0 309.0 153.0 L 309.0 216.0 Q 309.0 221.0 314.0 221.0 L 322.0 221.0" fill="none" stroke="#444441" stroke-width="1.5" marker-end="url(#arr)"/><path d="M 297.0 306.0 L 304.0 306.0 Q 309.0 306.0 309.0 301.0 L 309.0 238.0 Q 309.0 233.0 314.0 233.0 L 322.0 233.0" fill="none" stroke="#444441" stroke-width="1.5" marker-end="url(#arr)"/><circle cx="335" cy="227" r="13" fill="#EEEDFE" stroke="#534AB7" stroke-width="1.2"/><path d="M 328 222 L 335 227 M 328 232 L 335 227 M 335 227 L 342 227" fill="none" stroke="#534AB7" stroke-width="1.5" stroke-linecap="round" stroke-linejoin="round"/><text x="335" y="252" text-anchor="middle" font-size="8.5" fill="#534AB7" font-weight="600">concat</text><text x="335" y="262" text-anchor="middle" font-size="8" fill="#888780">2W × D</text><path d="M 348.0 227.0 L 368.0 227.0" fill="none" stroke="#444441" stroke-width="1.5" marker-end="url(#arr)"/><rect x="368" y="165" width="134" height="124" rx="8" fill="#EEEDFE" stroke="#534AB7" stroke-width="1.3"/><text x="435" y="205" text-anchor="middle" font-size="13.5" font-weight="600" fill="#26215C">Transformer</text><text x="435" y="222" text-anchor="middle" font-size="13.5" font-weight="600" fill="#26215C">encoder</text><text x="435" y="244" text-anchor="middle" font-size="9" fill="#5F5E5A" font-style="italic">EMG &amp; intent tokens</text><text x="435" y="256" text-anchor="middle" font-size="9" fill="#5F5E5A" font-style="italic">attend jointly</text><path d="M 502.0 227.0 L 527.0 227.0" fill="none" stroke="#444441" stroke-width="1.5" marker-end="url(#arr)"/><circle cx="540" cy="227" r="13" fill="#EEEDFE" stroke="#534AB7" stroke-width="1.2"/><path d="M 533 227 L 540 227 M 540 227 L 547 222 M 540 227 L 547 232" fill="none" stroke="#534AB7" stroke-width="1.5" stroke-linecap="round" stroke-linejoin="round"/><text x="540" y="252" text-anchor="middle" font-size="8.5" fill="#534AB7" font-weight="600">split</text><path d="M 553.0 222.0 L 562.0 222.0 Q 567.0 222.0 567.0 217.0 L 567.0 97.0 Q 567.0 92.0 572.0 92.0 L 580.0 92.0" fill="none" stroke="#444441" stroke-width="1.5" marker-end="url(#arr)"/><path d="M 553.0 232.0 L 562.0 232.0 Q 567.0 232.0 567.0 237.0 L 567.0 243.0 Q 567.0 248.0 572.0 248.0 L 580.0 248.0" fill="none" stroke="#444441" stroke-width="1.5" marker-end="url(#arr)"/><text x="646" y="31" text-anchor="middle" font-size="11" font-weight="600" fill="#085041">EMG reconstruction</text><polyline points="582.0,42.66 584.4,42.69 586.7,42.67 589.1,43.09 591.5,43.25 593.9,42.90 596.2,42.96 598.6,42.65 601.0,43.04 603.3,42.95 605.7,43.36 608.1,44.12 610.4,41.33 612.8,42.44 615.2,40.19 617.6,43.11 619.9,43.97 622.3,45.40 624.7,42.09 627.0,43.06 629.4,42.90 631.8,42.80 634.1,42.85 636.5,43.06 638.9,43.06 641.3,42.63 643.6,42.61 646.0,43.13 648.4,43.02 650.7,43.20 653.1,43.15 655.5,42.96 657.9,43.03 660.2,43.04 662.6,42.81 665.0,42.64 667.3,43.24 669.7,43.08 672.1,42.84 674.4,43.12 676.8,43.02 679.2,43.22 681.6,43.31 683.9,43.39 686.3,43.09 688.7,43.26 691.0,42.80 693.4,42.75 695.8,42.74 698.1,43.04 700.5,43.13 702.9,42.95 705.3,43.06 707.6,43.18 710.0,42.99" fill="none" stroke="#0F6E56" stroke-width="0.7" stroke-linecap="round" stroke-linejoin="round"/><polyline points="582.0,56.69 584.4,57.05 586.7,56.59 589.1,57.28 591.5,57.65 593.9,57.07 596.2,56.89 598.6,56.62 601.0,57.05 603.3,56.86 605.7,57.14 608.1,56.71 610.4,57.26 612.8,57.35 615.2,56.67 617.6,57.13 619.9,57.29 622.3,57.17 624.7,57.08 627.0,57.00 629.4,57.05 631.8,57.04 634.1,56.87 636.5,56.92 638.9,57.13 641.3,57.38 643.6,57.03 646.0,56.78 648.4,57.08 650.7,57.35 653.1,56.80 655.5,56.10 657.9,54.70 660.2,53.18 662.6,52.97 665.0,55.11 667.3,52.96 669.7,58.74 672.1,58.67 674.4,57.41 676.8,56.91 679.2,57.30 681.6,56.85 683.9,56.93 686.3,57.31 688.7,56.92 691.0,57.12 693.4,56.96 695.8,56.98 698.1,57.50 700.5,56.93 702.9,57.20 705.3,56.94 707.6,57.41 710.0,56.97" fill="none" stroke="#0F6E56" stroke-width="0.7" stroke-linecap="round" stroke-linejoin="round"/><polyline points="582.0,70.78 584.4,71.07 586.7,71.36 589.1,71.10 591.5,70.85 593.9,70.71 596.2,70.68 598.6,71.06 601.0,71.25 603.3,70.77 605.7,70.73 608.1,71.39 610.4,70.96 612.8,71.08 615.2,71.00 617.6,71.26 619.9,71.13 622.3,70.84 624.7,70.91 627.0,70.85 629.4,71.59 631.8,71.10 634.1,70.78 636.5,70.89 638.9,70.95 641.3,70.90 643.6,71.13 646.0,70.87 648.4,71.13 650.7,70.97 653.1,70.82 655.5,71.04 657.9,70.94 660.2,70.95 662.6,71.18 665.0,71.07 667.3,71.38 669.7,71.14 672.1,71.14 674.4,71.13 676.8,70.89 679.2,70.98 681.6,71.17 683.9,70.95 686.3,70.86 688.7,70.94 691.0,71.01 693.4,71.31 695.8,70.90 698.1,70.62 700.5,71.49 702.9,70.85 705.3,70.96 707.6,71.01 710.0,71.25" fill="none" stroke="#0F6E56" stroke-width="0.7" stroke-linecap="round" stroke-linejoin="round"/><polyline points="582.0,85.01 584.4,84.95 586.7,85.10 589.1,84.84 591.5,85.08 593.9,85.01 596.2,84.69 598.6,85.00 601.0,85.18 603.3,84.63 605.7,85.35 608.1,85.26 610.4,85.34 612.8,85.23 615.2,84.72 617.6,85.07 619.9,85.01 622.3,84.85 624.7,85.42 627.0,85.17 629.4,85.08 631.8,85.16 634.1,85.19 636.5,85.11 638.9,84.93 641.3,85.24 643.6,85.24 646.0,84.91 648.4,84.67 650.7,85.16 653.1,84.94 655.5,84.86 657.9,85.22 660.2,84.68 662.6,84.99 665.0,85.27 667.3,84.87 669.7,84.83 672.1,84.86 674.4,84.73 676.8,84.65 679.2,85.15 681.6,85.18 683.9,86.38 686.3,86.46 688.7,84.27 691.0,81.79 693.4,82.98 695.8,86.82 698.1,85.91 700.5,84.61 702.9,84.90 705.3,84.65 707.6,84.53 710.0,85.37" fill="none" stroke="#0F6E56" stroke-width="0.7" stroke-linecap="round" stroke-linejoin="round"/><polyline points="582.0,99.14 584.4,99.37 586.7,98.71 589.1,99.30 591.5,99.08 593.9,98.72 596.2,98.94 598.6,98.98 601.0,99.31 603.3,98.74 605.7,98.80 608.1,99.93 610.4,97.83 612.8,97.17 615.2,101.17 617.6,97.78 619.9,99.39 622.3,98.98 624.7,99.06 627.0,99.05 629.4,98.53 631.8,98.90 634.1,98.74 636.5,98.75 638.9,98.42 641.3,99.18 643.6,99.00 646.0,99.04 648.4,98.77 650.7,98.87 653.1,99.03 655.5,99.08 657.9,98.86 660.2,98.91 662.6,99.39 665.0,99.47 667.3,99.13 669.7,98.98 672.1,99.36 674.4,99.02 676.8,98.64 679.2,99.06 681.6,99.47 683.9,99.15 686.3,98.96 688.7,97.13 691.0,96.49 693.4,99.80 695.8,98.95 698.1,98.65 700.5,99.04 702.9,98.77 705.3,98.72 707.6,98.74 710.0,98.86" fill="none" stroke="#0F6E56" stroke-width="0.7" stroke-linecap="round" stroke-linejoin="round"/><polyline points="582.0,113.28 584.4,113.30 586.7,113.16 589.1,112.85 591.5,112.98 593.9,113.14 596.2,113.13 598.6,113.07 601.0,113.13 603.3,113.41 605.7,113.05 608.1,113.13 610.4,113.44 612.8,112.79 615.2,113.16 617.6,113.12 619.9,113.22 622.3,112.98 624.7,112.77 627.0,112.76 629.4,112.96 631.8,112.94 634.1,112.93 636.5,112.60 638.9,112.81 641.3,113.07 643.6,112.89 646.0,112.35 648.4,113.14 650.7,112.95 653.1,113.01 655.5,112.75 657.9,113.52 660.2,115.27 662.6,112.42 665.0,116.37 667.3,114.03 669.7,112.16 672.1,113.64 674.4,113.09 676.8,113.38 679.2,113.07 681.6,113.11 683.9,112.58 686.3,113.10 688.7,113.25 691.0,113.21 693.4,113.29 695.8,112.65 698.1,112.69 700.5,113.11 702.9,113.13 705.3,113.45 707.6,113.22 710.0,112.93" fill="none" stroke="#0F6E56" stroke-width="0.7" stroke-linecap="round" stroke-linejoin="round"/><polyline points="582.0,127.12 584.4,126.94 586.7,127.06 589.1,126.73 591.5,127.28 593.9,126.96 596.2,126.92 598.6,127.04 601.0,126.49 603.3,127.25 605.7,127.17 608.1,126.99 610.4,127.06 612.8,126.86 615.2,126.81 617.6,126.89 619.9,126.99 622.3,127.23 624.7,126.96 627.0,126.67 629.4,126.94 631.8,127.10 634.1,127.49 636.5,127.04 638.9,126.75 641.3,126.97 643.6,126.91 646.0,127.05 648.4,127.05 650.7,127.59 653.1,126.80 655.5,127.18 657.9,127.28 660.2,126.89 662.6,127.03 665.0,127.07 667.3,127.05 669.7,127.09 672.1,127.06 674.4,127.12 676.8,126.88 679.2,127.22 681.6,126.84 683.9,127.14 686.3,126.84 688.7,126.98 691.0,127.16 693.4,126.96 695.8,126.85 698.1,126.84 700.5,126.98 702.9,127.00 705.3,127.45 707.6,126.98 710.0,127.17" fill="none" stroke="#0F6E56" stroke-width="0.7" stroke-linecap="round" stroke-linejoin="round"/><polyline points="582.0,140.83 584.4,140.98 586.7,140.98 589.1,140.61 591.5,140.97 593.9,140.96 596.2,141.01 598.6,141.20 601.0,141.32 603.3,140.95 605.7,140.68 608.1,140.94 610.4,141.45 612.8,140.04 615.2,143.28 617.6,140.43 619.9,143.40 622.3,140.36 624.7,140.67 627.0,140.39 629.4,140.86 631.8,140.76 634.1,140.74 636.5,140.92 638.9,141.28 641.3,140.59 643.6,141.11 646.0,140.95 648.4,141.07 650.7,140.91 653.1,141.07 655.5,141.10 657.9,139.83 660.2,140.78 662.6,138.51 665.0,142.50 667.3,139.96 669.7,140.06 672.1,140.54 674.4,140.81 676.8,141.09 679.2,141.22 681.6,140.96 683.9,141.31 686.3,141.12 688.7,140.90 691.0,141.13 693.4,141.15 695.8,140.77 698.1,140.93 700.5,140.88 702.9,140.90 705.3,140.88 707.6,140.98 710.0,140.84" fill="none" stroke="#0F6E56" stroke-width="0.7" stroke-linecap="round" stroke-linejoin="round"/><rect x="614.00" y="34" width="24.00" height="116" fill="none" stroke="#534AB7" stroke-width="1.1" stroke-dasharray="3 2"/><rect x="670.00" y="34" width="16.00" height="116" fill="none" stroke="#534AB7" stroke-width="1.1" stroke-dasharray="3 2"/><line x1="646" y1="152" x2="646" y2="166" stroke="#3C3489" stroke-width="1.5" marker-end="url(#arrP)"/><text x="646" y="180" text-anchor="middle" font-size="11" font-weight="600" fill="#26215C">MSE on masked</text><text x="646" y="226" text-anchor="middle" font-size="11" font-weight="600" fill="#712B13">intent prediction</text><rect x="582.0" y="232" width="7" height="32" rx="1.2" fill="#D9D7CE"/><rect x="590.0" y="232" width="7" height="32" rx="1.2" fill="#D9D7CE"/><rect x="598.0" y="232" width="7" height="32" rx="1.2" fill="#D9D7CE"/><rect x="606.0" y="232" width="7" height="32" rx="1.2" fill="#D9D7CE"/><rect x="614.0" y="232" width="7" height="32" rx="1.2" fill="#5DCAA5"/><rect x="622.0" y="232" width="7" height="32" rx="1.2" fill="#5DCAA5"/><rect x="630.0" y="232" width="7" height="32" rx="1.2" fill="#5DCAA5"/><rect x="638.0" y="232" width="7" height="32" rx="1.2" fill="#5DCAA5"/><rect x="646.0" y="232" width="7" height="32" rx="1.2" fill="#5DCAA5"/><rect x="654.0" y="232" width="7" height="32" rx="1.2" fill="#5DCAA5"/><rect x="662.0" y="232" width="7" height="32" rx="1.2" fill="#5DCAA5"/><rect x="670.0" y="232" width="7" height="32" rx="1.2" fill="#F0997B"/><rect x="678.0" y="232" width="7" height="32" rx="1.2" fill="#F0997B"/><rect x="686.0" y="232" width="7" height="32" rx="1.2" fill="#F0997B"/><rect x="694.0" y="232" width="7" height="32" rx="1.2" fill="#F0997B"/><rect x="702.0" y="232" width="7" height="32" rx="1.2" fill="#F0997B"/><rect x="613.0" y="230" width="25.0" height="36" fill="none" stroke="#534AB7" stroke-width="1.1" stroke-dasharray="3 2"/><rect x="669.0" y="230" width="17.0" height="36" fill="none" stroke="#534AB7" stroke-width="1.1" stroke-dasharray="3 2"/><line x1="646" y1="266" x2="646" y2="280" stroke="#3C3489" stroke-width="1.5" marker-end="url(#arrP)"/><text x="646" y="294" text-anchor="middle" font-size="11" font-weight="600" fill="#26215C">CE on masked</text></svg>